<svg xmlns="http://www.w3.org/2000/svg" width="300" height="300" viewBox="0 0 300 300">
  <defs>
    <style>
      .cls-1 {
        fill: #fff;
      }

      .cls-1, .cls-2 {
        fill-rule: evenodd;
      }

      .cls-2 {
        fill: #c5001a;
      }
    </style>
  </defs>
  <path id="Заливка_цветом_1" data-name="Заливка цветом 1" class="cls-1" d="M145,19c34.134,35.007.183,0.056,34,35-31.33,31-63.67,63-95,94v1c20.331,20,41.669,40,62,60,21-20.331.242,0.153,62-62-13.149-14.057.029-.063-13-14,0.031,0.083-.031.01,0,0-48.732,47.413.218,0.2-48.695,47.458-34.32-32.4-.359-0.476-0.305-0.458-10.332-10-23.668-22-34-32,82.878-79.88-.03,0,83-81,81.97,80.192.03,0.1,82,80-130.282,131.216,0,.068-132,133-128.957-130.985-.039-0.078-129-131C58.662,106.338,102.338,61.662,145,19Z"/>
  <path id="Заливка_цветом_2" data-name="Заливка цветом 2" class="cls-2" d="M156,19c33.761,35.734.082-.035,34,36-31.33,31-63.67,63-95,94h0c59.893,60.055.037,0.158,60,60l63-61c-4.333-5-8.667-8-13-13-0.531-.542-0.5-0.521-1,0-15,15.332-33,31.668-48,47-3.687-3.583.031-.042-2-2-10.332-10-22.668-22-33-32,83.944-81.043,56.336-54,84-81,65.028,64.334,24.791,25.108,82,81-43.662,43.329-87.684,89.083-132,134-129.533-131.53.195,0.357-130-132Z"/>
</svg>
