<svg xmlns="http://www.w3.org/2000/svg" xmlns:xlink="http://www.w3.org/1999/xlink" version="1.1" style="enable-background:new 0 0 328.863 328.863;" xml:space="preserve" width="328.863" height="328.863"><rect id="backgroundrect" width="100%" height="100%" x="0" y="0" fill="none" stroke="none"/>
















<g class="currentLayer" style=""><title>Layer 1</title><g id="_x34_4-18Plus_movie" class="selected" fill="#ffffff" fill-opacity="1">
	<g id="svg_1" fill="#ffffff" fill-opacity="1">
		<path d="M104.032,220.434V131.15H83.392V108.27h49.121v112.164H104.032z" id="svg_2" fill="#ffffff" fill-opacity="1"/>
	</g>
	<g id="svg_3" fill="#ffffff" fill-opacity="1">
		<path d="M239.552,137.23c0,9.76-5.28,18.4-14.08,23.201c12.319,5.119,20,15.84,20,28.32c0,20.16-17.921,32.961-45.921,32.961    c-28.001,0-45.921-12.641-45.921-32.48c0-12.801,8.32-23.682,21.28-28.801c-9.44-5.281-15.52-14.24-15.52-24    c0-17.922,15.681-29.281,40.001-29.281C224.031,107.15,239.552,118.83,239.552,137.23z M180.51,186.352    c0,9.441,6.721,14.721,19.041,14.721c12.32,0,19.2-5.119,19.2-14.721c0-9.279-6.88-14.561-19.2-14.561    C187.23,171.791,180.51,177.072,180.51,186.352z M183.391,138.83c0,8.002,5.76,12.48,16.16,12.48c10.4,0,16.16-4.479,16.16-12.48    c0-8.318-5.76-12.959-16.16-12.959C189.15,125.871,183.391,130.512,183.391,138.83z" id="svg_4" fill="#ffffff" fill-opacity="1"/>
	</g>
	<g id="svg_5" fill="#ffffff" fill-opacity="1">
		<path d="M292.864,120.932c4.735,13.975,7.137,28.592,7.137,43.5c0,74.752-60.816,135.568-135.569,135.568    S28.862,239.184,28.862,164.432c0-74.754,60.816-135.568,135.569-135.568c14.91,0,29.527,2.4,43.5,7.137V5.832    C193.817,1.963,179.24,0,164.432,0C73.765,0,0.001,73.764,0.001,164.432s73.764,164.432,164.431,164.432    S328.862,255.1,328.862,164.432c0-14.807-1.962-29.385-5.831-43.5H292.864z" id="svg_6" fill="#ffffff" fill-opacity="1"/>
	</g>
	<g id="svg_7" fill="#ffffff" fill-opacity="1">
		<polygon points="284.659,44.111 284.659,12.582 261.987,12.582 261.987,44.111 230.647,44.111 230.647,66.781 261.987,66.781     261.987,98.309 284.659,98.309 284.659,66.781 316.186,66.781 316.186,44.111   " id="svg_8" fill="#ffffff" fill-opacity="1"/>
	</g>
</g><g id="svg_9">
</g><g id="svg_10">
</g><g id="svg_11">
</g><g id="svg_12">
</g><g id="svg_13">
</g><g id="svg_14">
</g><g id="svg_15">
</g><g id="svg_16">
</g><g id="svg_17">
</g><g id="svg_18">
</g><g id="svg_19">
</g><g id="svg_20">
</g><g id="svg_21">
</g><g id="svg_22">
</g><g id="svg_23">
</g></g></svg>